<?xml version="1.0" encoding="UTF-8"?>
<!--Generator: Apple Native CoreSVG 341-->
<!DOCTYPE svg
PUBLIC "-//W3C//DTD SVG 1.1//EN"
       "http://www.w3.org/Graphics/SVG/1.1/DTD/svg11.dtd">
<svg version="1.1" xmlns="http://www.w3.org/2000/svg" xmlns:xlink="http://www.w3.org/1999/xlink" viewBox="0 0 3300 2200">
 <!--glyph: "", point size: 100.0, font version: "20.0d10e1", template writer version: "138.0.0"-->
 <style>.monochrome-0 {-sfsymbols-motion-group:1;-sfsymbols-layer-tags:-46c41de6b45a3821}
.monochrome-1 {opacity:0.0;-sfsymbols-clear-behind:true;-sfsymbols-motion-group:0;-sfsymbols-layer-tags:-46c41de6b45a3821}

.multicolor-0:tintColor {-sfsymbols-motion-group:1;-sfsymbols-layer-tags:-46c41de6b45a3821}
.multicolor-1:tintColor {-sfsymbols-motion-group:0;-sfsymbols-layer-tags:-46c41de6b45a3821}

.hierarchical-0:primary {-sfsymbols-motion-group:1;-sfsymbols-layer-tags:-46c41de6b45a3821}
.hierarchical-1:primary {-sfsymbols-motion-group:0;-sfsymbols-layer-tags:-46c41de6b45a3821}

.SFSymbolsPreviewWireframe {fill:none;opacity:1.0;stroke:black;stroke-width:0.5}
</style>
 <g id="Notes">
  <rect height="2200" id="artboard" style="fill:white;opacity:1" width="3300" x="0" y="0"/>
  <line style="fill:none;stroke:black;opacity:1;stroke-width:0.5;" x1="263" x2="3036" y1="292" y2="292"/>
  <text style="stroke:none;fill:black;font-family:sans-serif;font-size:13;font-weight:bold;" transform="matrix(1 0 0 1 263 322)">Weight/Scale Variations</text>
  <text style="stroke:none;fill:black;font-family:sans-serif;font-size:13;text-anchor:middle;" transform="matrix(1 0 0 1 559.711 322)">Ultralight</text>
  <text style="stroke:none;fill:black;font-family:sans-serif;font-size:13;text-anchor:middle;" transform="matrix(1 0 0 1 856.422 322)">Thin</text>
  <text style="stroke:none;fill:black;font-family:sans-serif;font-size:13;text-anchor:middle;" transform="matrix(1 0 0 1 1153.13 322)">Light</text>
  <text style="stroke:none;fill:black;font-family:sans-serif;font-size:13;text-anchor:middle;" transform="matrix(1 0 0 1 1449.84 322)">Regular</text>
  <text style="stroke:none;fill:black;font-family:sans-serif;font-size:13;text-anchor:middle;" transform="matrix(1 0 0 1 1746.56 322)">Medium</text>
  <text style="stroke:none;fill:black;font-family:sans-serif;font-size:13;text-anchor:middle;" transform="matrix(1 0 0 1 2043.27 322)">Semibold</text>
  <text style="stroke:none;fill:black;font-family:sans-serif;font-size:13;text-anchor:middle;" transform="matrix(1 0 0 1 2339.98 322)">Bold</text>
  <text style="stroke:none;fill:black;font-family:sans-serif;font-size:13;text-anchor:middle;" transform="matrix(1 0 0 1 2636.69 322)">Heavy</text>
  <text style="stroke:none;fill:black;font-family:sans-serif;font-size:13;text-anchor:middle;" transform="matrix(1 0 0 1 2933.4 322)">Black</text>
  <line style="fill:none;stroke:black;opacity:1;stroke-width:0.5;" x1="263" x2="3036" y1="1903" y2="1903"/>
  <g transform="matrix(0.2 0 0 0.2 263 1933)">
   <path d="m46.2402 4.15039c21.7773 0 39.4531-17.627 39.4531-39.4043s-17.6758-39.4043-39.4531-39.4043c-21.7285 0-39.4043 17.627-39.4043 39.4043s17.6758 39.4043 39.4043 39.4043Zm0-7.42188c-17.6758 0-31.9336-14.3066-31.9336-31.9824s14.2578-31.9824 31.9336-31.9824 31.9824 14.3066 31.9824 31.9824-14.3066 31.9824-31.9824 31.9824Zm-17.9688-31.9824c0 2.14844 1.51367 3.61328 3.75977 3.61328h10.498v10.5957c0 2.19727 1.46484 3.71094 3.61328 3.71094 2.24609 0 3.71094-1.51367 3.71094-3.71094v-10.5957h10.5957c2.19727 0 3.71094-1.46484 3.71094-3.61328 0-2.19727-1.51367-3.71094-3.71094-3.71094h-10.5957v-10.5469c0-2.24609-1.46484-3.75977-3.71094-3.75977-2.14844 0-3.61328 1.51367-3.61328 3.75977v10.5469h-10.498c-2.24609 0-3.75977 1.51367-3.75977 3.71094Z"/>
  </g>
  <g transform="matrix(0.2 0 0 0.2 281.506 1933)">
   <path d="m58.5449 14.5508c27.4902 0 49.8047-22.3145 49.8047-49.8047s-22.3145-49.8047-49.8047-49.8047-49.8047 22.3145-49.8047 49.8047 22.3145 49.8047 49.8047 49.8047Zm0-8.30078c-22.9492 0-41.5039-18.5547-41.5039-41.5039s18.5547-41.5039 41.5039-41.5039 41.5039 18.5547 41.5039 41.5039-18.5547 41.5039-41.5039 41.5039Zm-22.6562-41.5039c0 2.39258 1.66016 4.00391 4.15039 4.00391h14.3555v14.4043c0 2.44141 1.66016 4.15039 4.05273 4.15039 2.44141 0 4.15039-1.66016 4.15039-4.15039v-14.4043h14.4043c2.44141 0 4.15039-1.61133 4.15039-4.00391 0-2.44141-1.70898-4.15039-4.15039-4.15039h-14.4043v-14.3555c0-2.49023-1.70898-4.19922-4.15039-4.19922-2.39258 0-4.05273 1.70898-4.05273 4.19922v14.3555h-14.3555c-2.49023 0-4.15039 1.70898-4.15039 4.15039Z"/>
  </g>
  <g transform="matrix(0.2 0 0 0.2 304.924 1933)">
   <path d="m74.8535 28.3203c35.1074 0 63.623-28.4668 63.623-63.5742s-28.5156-63.623-63.623-63.623-63.5742 28.5156-63.5742 63.623 28.4668 63.5742 63.5742 63.5742Zm0-9.08203c-30.127 0-54.4922-24.3652-54.4922-54.4922s24.3652-54.4922 54.4922-54.4922 54.4922 24.3652 54.4922 54.4922-24.3652 54.4922-54.4922 54.4922Zm-28.8574-54.4922c0 2.58789 1.85547 4.39453 4.58984 4.39453h19.7266v19.7754c0 2.68555 1.85547 4.58984 4.44336 4.58984 2.68555 0 4.54102-1.85547 4.54102-4.58984v-19.7754h19.7754c2.68555 0 4.58984-1.80664 4.58984-4.39453 0-2.73438-1.85547-4.58984-4.58984-4.58984h-19.7754v-19.7266c0-2.73438-1.85547-4.63867-4.54102-4.63867-2.58789 0-4.44336 1.9043-4.44336 4.63867v19.7266h-19.7266c-2.73438 0-4.58984 1.85547-4.58984 4.58984Z"/>
  </g>
  <text style="stroke:none;fill:black;font-family:sans-serif;font-size:13;font-weight:bold;" transform="matrix(1 0 0 1 263 1953)">Design Variations</text>
  <text style="stroke:none;fill:black;font-family:sans-serif;font-size:13;" transform="matrix(1 0 0 1 263 1971)">Symbols are supported in up to nine weights and three scales.</text>
  <text style="stroke:none;fill:black;font-family:sans-serif;font-size:13;" transform="matrix(1 0 0 1 263 1989)">For optimal layout with text and other symbols, vertically align</text>
  <text style="stroke:none;fill:black;font-family:sans-serif;font-size:13;" transform="matrix(1 0 0 1 263 2007)">symbols with the adjacent text.</text>
  <line style="fill:none;stroke:#00AEEF;stroke-width:0.5;opacity:1.0;" x1="776" x2="776" y1="1919" y2="1933"/>
  <g transform="matrix(0.2 0 0 0.2 776 1933)">
   <path d="m16.5527 0.78125c2.58789 0 3.85742-0.976562 4.78516-3.71094l6.29883-17.2363h28.8086l6.29883 17.2363c0.927734 2.73438 2.19727 3.71094 4.73633 3.71094 2.58789 0 4.24805-1.5625 4.24805-4.00391 0-0.830078-0.146484-1.61133-0.537109-2.63672l-22.9004-60.9863c-1.12305-2.97852-3.125-4.49219-6.25-4.49219-3.02734 0-5.07812 1.46484-6.15234 4.44336l-22.9004 61.084c-0.390625 1.02539-0.537109 1.80664-0.537109 2.63672 0 2.44141 1.5625 3.95508 4.10156 3.95508Zm13.4766-28.3691 11.8652-32.8613h0.244141l11.8652 32.8613Z"/>
  </g>
  <line style="fill:none;stroke:#00AEEF;stroke-width:0.5;opacity:1.0;" x1="792.836" x2="792.836" y1="1919" y2="1933"/>
  <text style="stroke:none;fill:black;font-family:sans-serif;font-size:13;font-weight:bold;" transform="matrix(1 0 0 1 776 1953)">Margins</text>
  <text style="stroke:none;fill:black;font-family:sans-serif;font-size:13;" transform="matrix(1 0 0 1 776 1971)">Leading and trailing margins on the left and right side of each symbol</text>
  <text style="stroke:none;fill:black;font-family:sans-serif;font-size:13;" transform="matrix(1 0 0 1 776 1989)">can be adjusted by modifying the x-location of the margin guidelines.</text>
  <text style="stroke:none;fill:black;font-family:sans-serif;font-size:13;" transform="matrix(1 0 0 1 776 2007)">Modifications are automatically applied proportionally to all</text>
  <text style="stroke:none;fill:black;font-family:sans-serif;font-size:13;" transform="matrix(1 0 0 1 776 2025)">scales and weights.</text>
  <g transform="matrix(0.2 0 0 0.2 1289 1933)">
   <path d="m14.209 9.32617 8.49609 8.54492c4.29688 4.3457 9.22852 4.05273 13.8672-1.07422l53.4668-58.9355-4.83398-4.88281-53.0762 58.3984c-1.75781 2.00195-3.41797 2.49023-5.76172 0.146484l-5.85938-5.81055c-2.34375-2.29492-1.80664-4.00391 0.195312-5.81055l57.373-54.0039-4.88281-4.83398-57.959 54.4434c-4.93164 4.58984-5.32227 9.47266-1.02539 13.8184Zm32.0801-90.9668c-2.09961 2.05078-2.24609 4.93164-1.07422 6.88477 1.17188 1.80664 3.4668 2.97852 6.68945 2.14844 7.32422-1.70898 14.9414-2.00195 22.0703 2.68555l-2.92969 7.27539c-1.70898 4.15039-0.830078 7.08008 1.85547 9.81445l11.4746 11.5723c2.44141 2.44141 4.49219 2.53906 7.32422 2.05078l5.32227-0.976562 3.32031 3.36914-0.195312 2.7832c-0.195312 2.49023 0.439453 4.39453 2.88086 6.78711l3.80859 3.71094c2.39258 2.39258 5.46875 2.53906 7.8125 0.195312l14.5508-14.5996c2.34375-2.34375 2.24609-5.32227-0.146484-7.71484l-3.85742-3.80859c-2.39258-2.39258-4.24805-3.17383-6.64062-2.97852l-2.88086 0.244141-3.22266-3.17383 1.2207-5.61523c0.634766-2.83203-0.146484-5.0293-3.07617-7.95898l-10.9863-10.9375c-16.6992-16.6016-38.8672-16.2109-53.3203-1.75781Zm7.4707 1.85547c12.1582-8.88672 28.6133-7.37305 39.7461 3.75977l12.1582 12.0605c1.17188 1.17188 1.36719 2.09961 1.02539 3.80859l-1.61133 7.42188 7.51953 7.42188 4.93164-0.292969c1.26953-0.0488281 1.66016 0.0488281 2.63672 1.02539l2.88086 2.88086-12.207 12.207-2.88086-2.88086c-0.976562-0.976562-1.12305-1.36719-1.07422-2.68555l0.341797-4.88281-7.4707-7.42188-7.61719 1.26953c-1.61133 0.341797-2.34375 0.195312-3.56445-0.976562l-10.0098-10.0098c-1.26953-1.17188-1.41602-2.00195-0.634766-3.85742l4.39453-10.4492c-7.8125-7.27539-17.9688-10.4004-28.125-7.42188-0.78125 0.195312-1.07422-0.439453-0.439453-0.976562Z"/>
  </g>
  <text style="stroke:none;fill:black;font-family:sans-serif;font-size:13;font-weight:bold;" transform="matrix(1 0 0 1 1289 1953)">Exporting</text>
  <text style="stroke:none;fill:black;font-family:sans-serif;font-size:13;" transform="matrix(1 0 0 1 1289 1971)">Symbols should be outlined when exporting to ensure the</text>
  <text style="stroke:none;fill:black;font-family:sans-serif;font-size:13;" transform="matrix(1 0 0 1 1289 1989)">design is preserved when submitting to Xcode.</text>
  <text id="template-version" style="stroke:none;fill:black;font-family:sans-serif;font-size:13;text-anchor:end;" transform="matrix(1 0 0 1 3036 1933)">Template v.6.0</text>
  <text style="stroke:none;fill:black;font-family:sans-serif;font-size:13;text-anchor:end;" transform="matrix(1 0 0 1 3036 1951)">Requires Xcode 16 or greater</text>
  <text id="descriptive-name" style="stroke:none;fill:black;font-family:sans-serif;font-size:13;text-anchor:end;" transform="matrix(1 0 0 1 3036 1969)">Generated from custom.housePet.fill</text>
  <text style="stroke:none;fill:black;font-family:sans-serif;font-size:13;text-anchor:end;" transform="matrix(1 0 0 1 3036 1987)">Typeset at 100.0 points</text>
  <text style="stroke:none;fill:black;font-family:sans-serif;font-size:13;" transform="matrix(1 0 0 1 263 726)">Small</text>
  <text style="stroke:none;fill:black;font-family:sans-serif;font-size:13;" transform="matrix(1 0 0 1 263 1156)">Medium</text>
  <text style="stroke:none;fill:black;font-family:sans-serif;font-size:13;" transform="matrix(1 0 0 1 263 1586)">Large</text>
 </g>
 <g id="Guides">
  <g id="H-reference" style="fill:#27AAE1;stroke:none;" transform="matrix(1 0 0 1 339 696)">
   <path d="M0.993654 0L3.63775 0L29.3281-67.1323L30.0303-67.1323L30.0303-70.459L28.1226-70.459ZM11.6885-24.4799L46.9815-24.4799L46.2315-26.7285L12.4385-26.7285ZM55.1196 0L57.7637 0L30.6382-70.459L29.4326-70.459L29.4326-67.1323Z"/>
  </g>
  <line id="Baseline-S" style="fill:none;stroke:#27AAE1;opacity:1;stroke-width:0.5;" x1="263" x2="3036" y1="696" y2="696"/>
  <line id="Capline-S" style="fill:none;stroke:#27AAE1;opacity:1;stroke-width:0.5;" x1="263" x2="3036" y1="625.541" y2="625.541"/>
  <g id="H-reference" style="fill:#27AAE1;stroke:none;" transform="matrix(1 0 0 1 339 1126)">
   <path d="M0.993654 0L3.63775 0L29.3281-67.1323L30.0303-67.1323L30.0303-70.459L28.1226-70.459ZM11.6885-24.4799L46.9815-24.4799L46.2315-26.7285L12.4385-26.7285ZM55.1196 0L57.7637 0L30.6382-70.459L29.4326-70.459L29.4326-67.1323Z"/>
  </g>
  <line id="Baseline-M" style="fill:none;stroke:#27AAE1;opacity:1;stroke-width:0.5;" x1="263" x2="3036" y1="1126" y2="1126"/>
  <line id="Capline-M" style="fill:none;stroke:#27AAE1;opacity:1;stroke-width:0.5;" x1="263" x2="3036" y1="1055.54" y2="1055.54"/>
  <g id="H-reference" style="fill:#27AAE1;stroke:none;" transform="matrix(1 0 0 1 339 1556)">
   <path d="M0.993654 0L3.63775 0L29.3281-67.1323L30.0303-67.1323L30.0303-70.459L28.1226-70.459ZM11.6885-24.4799L46.9815-24.4799L46.2315-26.7285L12.4385-26.7285ZM55.1196 0L57.7637 0L30.6382-70.459L29.4326-70.459L29.4326-67.1323Z"/>
  </g>
  <line id="Baseline-L" style="fill:none;stroke:#27AAE1;opacity:1;stroke-width:0.5;" x1="263" x2="3036" y1="1556" y2="1556"/>
  <line id="Capline-L" style="fill:none;stroke:#27AAE1;opacity:1;stroke-width:0.5;" x1="263" x2="3036" y1="1485.54" y2="1485.54"/>
  <line id="right-margin-Black-S" style="fill:none;stroke:#00AEEF;stroke-width:0.5;opacity:1.0;" x1="2994.97" x2="2994.97" y1="600.785" y2="720.121"/>
  <line id="left-margin-Black-S" style="fill:none;stroke:#00AEEF;stroke-width:0.5;opacity:1.0;" x1="2871.83" x2="2871.83" y1="600.785" y2="720.121"/>
  <line id="right-margin-Regular-S" style="fill:none;stroke:#00AEEF;stroke-width:0.5;opacity:1.0;" x1="1506.24" x2="1506.24" y1="600.785" y2="720.121"/>
  <line id="left-margin-Regular-S" style="fill:none;stroke:#00AEEF;stroke-width:0.5;opacity:1.0;" x1="1393.45" x2="1393.45" y1="600.785" y2="720.121"/>
  <line id="right-margin-Ultralight-S" style="fill:none;stroke:#00AEEF;stroke-width:0.5;opacity:1.0;" x1="610.954" x2="610.954" y1="600.785" y2="720.121"/>
  <line id="left-margin-Ultralight-S" style="fill:none;stroke:#00AEEF;stroke-width:0.5;opacity:1.0;" x1="508.469" x2="508.469" y1="600.785" y2="720.121"/>
 </g>
 <g id="Symbols">
  <g id="Black-S" transform="matrix(1 0 0 1 2871.83 696)">
   <path class="SFSymbolsPreviewWireframe" d="M45.2866-53.7064C43.9808-52.4877 42.8083-51.4403 41.7661-50.5147C41.619-50.384 41.475-50.2562 41.3338-50.131C40.451-49.3477 39.6823-48.6656 38.9917-48.0233C37.3923-46.5357 36.382-45.4125 35.6675-44.1564C34.2353-41.6382 33.7025-38.107 33.7025-29.0369C33.7025-22.4796 34.092-17.7724 34.9722-14.3593C35.8363-11.0091 37.1244-9.08886 38.8308-7.85496C40.6128-6.56589 43.157-5.79825 46.9881-5.40024C50.8155-5.00287 55.5897-5 61.67-5C67.7503-5 72.5244-5.00287 76.3517-5.40024C80.1831-5.79825 82.727-6.56589 84.5093-7.85496C86.2157-9.08886 87.5036-11.0091 88.3677-14.3593C89.2479-17.7724 89.6375-22.4796 89.6375-29.0369C89.6375-38.1073 89.1055-41.6385 87.6739-44.1567C86.9598-45.4128 85.9498-46.536 84.3507-48.0235C83.6598-48.6663 82.8903-49.3492 82.0066-50.1334C81.8661-50.2578 81.723-50.3849 81.5768-50.5147C80.5348-51.4403 79.3624-52.4878 78.0565-53.7065C77.2835-54.3354 76.4827-55.016 75.6528-55.7212C73.8452-57.2576 71.8989-58.9115 69.7994-60.4059C66.6821-62.6249 63.8587-64 61.5814-64C59.3116-64 56.5266-62.6248 53.4503-60.4025C51.4428-58.9522 49.6063-57.3761 47.8806-55.8951C46.9891-55.13 46.1272-54.3902 45.2866-53.7064Z"/>
   <path class="monochrome-0 multicolor-0:tintColor hierarchical-0:primary SFSymbolsPreviewWireframe" d="M46.7304-73.1675C50.8918-76.1363 55.9535-79 61.0535-79C64.4441-79 69.2448-77.0657 75.4558-73.1972C79.4058-70.1541 82.2029-67.9431 83.8473-66.5642C84.8995-65.6819 85.8642-64.8728 86.7071-64.1976C86.7637-64.1523 86.8186-64.105 86.8718-64.0559C88.5609-62.4972 90.081-61.1557 91.4614-59.945C91.6486-59.7808 91.8337-59.6185 92.0168-59.458C93.1729-58.445 94.2471-57.5038 95.2139-56.6155C97.4575-54.5545 99.3458-52.5833 100.764-50.1207C103.594-45.2034 104.17-38.9454 104.17-27.409C104.17-18.7681 103.663-12.014 102.3-6.79575C100.917-1.49673 98.5891 2.44328 94.8282 5.12942C91.1668 7.74437 86.524 8.89226 81.107 9.44779C75.7212 10 69.1302 10 61.3248 10L61.0152 10C53.2098 10 46.6188 10 41.2327 9.44779C35.8161 8.89226 31.1733 7.74437 27.5119 5.12942C23.751 2.44328 21.4234-1.49673 20.0395-6.79575C18.6768-12.014 18.17-18.7681 18.17-27.409C18.17-38.9459 18.7468-45.2038 21.5789-50.1212C22.9971-52.5836 24.8858-54.5548 27.1296-56.6158C28.0956-57.503 29.1686-58.4431 30.3232-59.4547C30.5077-59.6163 30.6942-59.7798 30.8827-59.9451C32.2632-61.1557 33.7833-62.4973 35.4724-64.0559C35.5258-64.1052 35.5808-64.1526 35.6375-64.198C36.52-64.9048 37.5499-65.7761 38.6795-66.7318C41.0675-68.7519 43.9011-71.1492 46.7304-73.1675Z"/>
   <path class="monochrome-1 multicolor-1:tintColor hierarchical-1:primary SFSymbolsPreviewWireframe" d="M47.2302-19.1627C47.2302-21.6479 48.6084-23.6627 50.3086-23.6627L74.176-23.6627C75.8761-23.6627 77.2543-21.6479 77.2543-19.1627C77.2543-16.6775 75.8761-14.6627 74.176-14.6627L50.3086-14.6627C48.6084-14.6627 47.2302-16.6775 47.2302-19.1627Z"/>
  </g>
  <g id="Regular-S" transform="matrix(1 0 0 1 1393.45 696)">
   <path class="SFSymbolsPreviewWireframe" d="M36.5185-57.7491C34.9219-56.2739 33.4884-55.0059 32.2142-53.8855C32.0343-53.7274 31.8582-53.5727 31.6856-53.4211C30.6062-52.473 29.6663-51.6473 28.8219-50.8698C26.8664-49.0691 25.6312-47.7095 24.7576-46.1889C23.0064-43.1406 22.355-38.8662 22.355-27.887C22.355-19.9495 22.8312-14.2515 23.9074-10.12C24.9639-6.06459 26.5388-3.7402 28.6252-2.24659C30.8041-0.686186 33.9147 0.243028 38.5989 0.724814C43.2785 1.20583 49.1158 1.2093 56.55 1.2093C63.9842 1.2093 69.8213 1.20583 74.5009 0.724814C79.1854 0.243028 82.2957-0.686186 84.4749-2.24659C86.5612-3.7402 88.1359-6.06459 89.1924-10.12C90.2687-14.2515 90.745-19.9495 90.745-27.887C90.745-38.8666 90.0945-43.141 88.3441-46.1893C87.4711-47.7098 86.2361-49.0694 84.281-50.87C83.4362-51.6481 82.4954-52.4747 81.4149-53.424C81.2431-53.5746 81.0682-53.7284 80.8894-53.8856C79.6154-55.006 78.182-56.2739 76.5852-57.7492C75.6402-58.5105 74.6611-59.3343 73.6464-60.188C71.4362-62.0477 69.0566-64.0498 66.4896-65.8588C62.6781-68.5447 59.2261-70.2093 56.4416-70.2093C53.6665-70.2093 50.2613-68.5446 46.5001-65.8546C44.0455-64.099 41.8-62.1911 39.6902-60.3984C38.6001-59.4723 37.5463-58.5768 36.5185-57.7491Z"/>
   <path class="monochrome-0 multicolor-0:tintColor hierarchical-0:primary SFSymbolsPreviewWireframe" d="M43.1178-70.5607C46.9889-73.3294 51.6974-76 56.4416-76C59.5957-76 64.0615-74.1961 69.8391-70.5884C73.5135-67.7505 76.1155-65.6885 77.6452-64.4025C78.6239-63.5798 79.5214-62.8252 80.3054-62.1955C80.358-62.1532 80.4091-62.1092 80.4587-62.0634C82.0299-60.6098 83.444-59.3587 84.728-58.2296C84.9022-58.0765 85.0744-57.9251 85.2447-57.7754C86.3201-56.8307 87.3193-55.953 88.2187-55.1246C90.3058-53.2025 92.0624-51.3642 93.3813-49.0676C96.0144-44.4819 96.55-38.6458 96.55-27.887C96.55-19.8287 96.0786-13.53 94.8108-8.66345C93.5237-3.72167 91.3584-0.0472791 87.86 2.45778C84.454 4.89643 80.1351 5.96694 75.0961 6.48501C70.086 7 63.9548 7 56.694 7L56.406 7C49.1452 7 43.014 7 38.0037 6.48501C32.965 5.96694 28.6461 4.89643 25.2401 2.45778C21.7416-0.0472791 19.5764-3.72167 18.289-8.66345C17.0214-13.53 16.55-19.8287 16.55-27.887C16.55-38.6461 17.0866-44.4822 19.7211-49.0681C21.0403-51.3645 22.7973-53.2028 24.8845-55.1248C25.7831-55.9522 26.7812-56.8289 27.8553-57.7724C28.0269-57.9231 28.2005-58.0755 28.3758-58.2297C29.6599-59.3587 31.074-60.6098 32.6452-62.0634C32.6949-62.1094 32.7461-62.1535 32.7988-62.1959C33.6197-62.855 34.5778-63.6676 35.6286-64.5589C37.85-66.4428 40.4859-68.6784 43.1178-70.5607Z"/>
   <path class="monochrome-1 multicolor-1:tintColor hierarchical-1:primary SFSymbolsPreviewWireframe" d="M43.55-19C43.55-20.6568 44.8353-22 46.4208-22L68.6792-22C70.2646-22 71.55-20.6568 71.55-19C71.55-17.3432 70.2646-16 68.6792-16L46.4208-16C44.8353-16 43.55-17.3432 43.55-19Z"/>
  </g>
  <g id="Ultralight-S" transform="matrix(1 0 0 1 508.469 696)">
   <path class="SFSymbolsPreviewWireframe" d="M32.8124-56.3107C31.3205-54.9267 29.9809-53.7373 28.7902-52.6862C28.6221-52.5378 28.4575-52.3927 28.2963-52.2505C27.2876-51.361 26.4093-50.5864 25.6203-49.857C23.7929-48.1677 22.6386-46.8922 21.8223-45.4657C20.1859-42.6061 19.5772-38.5961 19.5772-28.2962C19.5772-20.8497 20.0222-15.5042 21.0278-11.6284C22.0151-7.82386 23.4868-5.64328 25.4364-4.24208C27.4725-2.77822 30.3793-1.90649 34.7565-1.45451C39.1294-1.00326 44.584-1 51.531-1C58.478-1 63.9325-1.00326 68.3053-1.45451C72.6829-1.90649 75.5893-2.77822 77.6257-4.24208C79.5752-5.64328 81.0467-7.82386 82.034-11.6284C83.0397-15.5042 83.4848-20.8497 83.4848-28.2962C83.4848-38.5964 82.8769-42.6064 81.2413-45.4661C80.4254-46.8925 79.2715-48.168 77.4445-49.8572C76.6551-50.5872 75.7759-51.3626 74.7662-52.2532C74.6057-52.3945 74.4422-52.5388 74.2752-52.6862C73.0847-53.7373 71.7452-54.9268 70.2531-56.3108C69.37-57.025 68.455-57.7978 67.5068-58.5987C65.4416-60.3434 63.2179-62.2216 60.8192-63.9186C57.2575-66.4384 54.0317-68 51.4297-68C48.8365-68 45.6545-66.4383 42.1398-63.9147C39.8461-62.2678 37.7478-60.4779 35.7762-58.7961C34.7576-57.9273 33.7728-57.0872 32.8124-56.3107Z"/>
   <path class="monochrome-0 multicolor-0:tintColor hierarchical-0:primary SFSymbolsPreviewWireframe" d="M39.442-67.085C42.926-69.5868 47.1637-72 51.4335-72C54.2721-72 58.2913-70.37 63.4912-67.11C66.7981-64.5456 69.14-62.6824 70.5167-61.5204C71.3975-60.7769 72.2052-60.0951 72.9109-59.526C72.9582-59.4879 73.0042-59.4481 73.0488-59.4067C74.4629-58.0932 75.7356-56.9627 76.8912-55.9424C77.048-55.804 77.2029-55.6673 77.3562-55.532C78.3241-54.6784 79.2234-53.8852 80.0329-53.1367C81.9112-51.3999 83.4921-49.7387 84.6791-47.6635C87.049-43.5197 87.531-38.2462 87.531-28.5244C87.531-21.2428 87.1068-15.5512 85.9658-11.1537C84.8073-6.68826 82.8586-3.36802 79.71-1.10442C76.6446 1.09919 72.7576 2.06651 68.2224 2.53465C63.7134 3 58.1953 3 51.6606 3L51.4014 3C44.8667 3 39.3486 3 34.8393 2.53465C30.3045 2.06651 26.4174 1.09919 23.3521-1.10442C20.2034-3.36802 18.2548-6.68826 17.0961-11.1537C15.9553-15.5512 15.531-21.2428 15.531-28.5244C15.531-38.2465 16.0139-43.5201 18.3849-47.6639C19.5723-49.739 21.1535-51.4001 23.0321-53.1369C23.8408-53.8845 24.7391-54.6767 25.7058-55.5293C25.8602-55.6655 26.0164-55.8032 26.1742-55.9425C27.33-56.9627 28.6026-58.0932 30.0167-59.4067C30.0614-59.4482 30.1075-59.4881 30.155-59.5264C30.8938-60.122 31.756-60.8563 32.7018-61.6616C34.701-63.364 37.0733-65.3841 39.442-67.085Z"/>
   <path class="monochrome-1 multicolor-1:tintColor hierarchical-1:primary SFSymbolsPreviewWireframe" d="M38.784-18.494C38.784-19.9911 39.9454-21.2048 41.3781-21.2048L61.4911-21.2048C62.9237-21.2048 64.0852-19.9911 64.0852-18.494C64.0852-16.9969 62.9237-15.7831 61.4911-15.7831L41.3781-15.7831C39.9454-15.7831 38.784-16.9969 38.784-18.494Z"/>
  </g>
 </g>
</svg>
