<?xml version="1.0" encoding="UTF-8"?>
<!--Generator: Apple Native CoreSVG 341-->
<!DOCTYPE svg
PUBLIC "-//W3C//DTD SVG 1.1//EN"
       "http://www.w3.org/Graphics/SVG/1.1/DTD/svg11.dtd">
<svg version="1.1" xmlns="http://www.w3.org/2000/svg" xmlns:xlink="http://www.w3.org/1999/xlink" viewBox="0 0 3300 2200">
 <!--glyph: "", point size: 100.0, font version: "20.0d10e1", template writer version: "138.0.0"-->
 <style>.monochrome-0 {-sfsymbols-motion-group:1;-sfsymbols-layer-tags:19b5fa0d08247d4d ad3783ddf04ed2d}
.monochrome-1 {opacity:0.0;-sfsymbols-clear-behind:true;-sfsymbols-variable-threshold:0.0;-sfsymbols-motion-group:0;-sfsymbols-layer-tags:19b5fa0d08247d4d ad3783ddf04ed2d}

.multicolor-0:tintColor {-sfsymbols-motion-group:1;-sfsymbols-layer-tags:19b5fa0d08247d4d ad3783ddf04ed2d}
.multicolor-1:tertiaryLabelColor {-sfsymbols-clear-behind:true;-sfsymbols-variable-threshold:0.0;-sfsymbols-motion-group:0;-sfsymbols-layer-tags:19b5fa0d08247d4d ad3783ddf04ed2d}

.hierarchical-0:primary {-sfsymbols-motion-group:1;-sfsymbols-layer-tags:19b5fa0d08247d4d ad3783ddf04ed2d}
.hierarchical-1:primary {-sfsymbols-clear-behind:true;-sfsymbols-variable-threshold:0.0;-sfsymbols-motion-group:0;-sfsymbols-layer-tags:19b5fa0d08247d4d ad3783ddf04ed2d}

.SFSymbolsPreviewWireframe {fill:none;opacity:1.0;stroke:black;stroke-width:0.5}
</style>
 <g id="Notes">
  <rect height="2200" id="artboard" style="fill:white;opacity:1" width="3300" x="0" y="0"/>
  <line style="fill:none;stroke:black;opacity:1;stroke-width:0.5;" x1="263" x2="3036" y1="292" y2="292"/>
  <text style="stroke:none;fill:black;font-family:sans-serif;font-size:13;font-weight:bold;" transform="matrix(1 0 0 1 263 322)">Weight/Scale Variations</text>
  <text style="stroke:none;fill:black;font-family:sans-serif;font-size:13;text-anchor:middle;" transform="matrix(1 0 0 1 559.711 322)">Ultralight</text>
  <text style="stroke:none;fill:black;font-family:sans-serif;font-size:13;text-anchor:middle;" transform="matrix(1 0 0 1 856.422 322)">Thin</text>
  <text style="stroke:none;fill:black;font-family:sans-serif;font-size:13;text-anchor:middle;" transform="matrix(1 0 0 1 1153.13 322)">Light</text>
  <text style="stroke:none;fill:black;font-family:sans-serif;font-size:13;text-anchor:middle;" transform="matrix(1 0 0 1 1449.84 322)">Regular</text>
  <text style="stroke:none;fill:black;font-family:sans-serif;font-size:13;text-anchor:middle;" transform="matrix(1 0 0 1 1746.56 322)">Medium</text>
  <text style="stroke:none;fill:black;font-family:sans-serif;font-size:13;text-anchor:middle;" transform="matrix(1 0 0 1 2043.27 322)">Semibold</text>
  <text style="stroke:none;fill:black;font-family:sans-serif;font-size:13;text-anchor:middle;" transform="matrix(1 0 0 1 2339.98 322)">Bold</text>
  <text style="stroke:none;fill:black;font-family:sans-serif;font-size:13;text-anchor:middle;" transform="matrix(1 0 0 1 2636.69 322)">Heavy</text>
  <text style="stroke:none;fill:black;font-family:sans-serif;font-size:13;text-anchor:middle;" transform="matrix(1 0 0 1 2933.4 322)">Black</text>
  <line style="fill:none;stroke:black;opacity:1;stroke-width:0.5;" x1="263" x2="3036" y1="1903" y2="1903"/>
  <g transform="matrix(0.2 0 0 0.2 263 1933)">
   <path d="m46.2402 4.15039c21.7773 0 39.4531-17.627 39.4531-39.4043s-17.6758-39.4043-39.4531-39.4043c-21.7285 0-39.4043 17.627-39.4043 39.4043s17.6758 39.4043 39.4043 39.4043Zm0-7.42188c-17.6758 0-31.9336-14.3066-31.9336-31.9824s14.2578-31.9824 31.9336-31.9824 31.9824 14.3066 31.9824 31.9824-14.3066 31.9824-31.9824 31.9824Zm-17.9688-31.9824c0 2.14844 1.51367 3.61328 3.75977 3.61328h10.498v10.5957c0 2.19727 1.46484 3.71094 3.61328 3.71094 2.24609 0 3.71094-1.51367 3.71094-3.71094v-10.5957h10.5957c2.19727 0 3.71094-1.46484 3.71094-3.61328 0-2.19727-1.51367-3.71094-3.71094-3.71094h-10.5957v-10.5469c0-2.24609-1.46484-3.75977-3.71094-3.75977-2.14844 0-3.61328 1.51367-3.61328 3.75977v10.5469h-10.498c-2.24609 0-3.75977 1.51367-3.75977 3.71094Z"/>
  </g>
  <g transform="matrix(0.2 0 0 0.2 281.506 1933)">
   <path d="m58.5449 14.5508c27.4902 0 49.8047-22.3145 49.8047-49.8047s-22.3145-49.8047-49.8047-49.8047-49.8047 22.3145-49.8047 49.8047 22.3145 49.8047 49.8047 49.8047Zm0-8.30078c-22.9492 0-41.5039-18.5547-41.5039-41.5039s18.5547-41.5039 41.5039-41.5039 41.5039 18.5547 41.5039 41.5039-18.5547 41.5039-41.5039 41.5039Zm-22.6562-41.5039c0 2.39258 1.66016 4.00391 4.15039 4.00391h14.3555v14.4043c0 2.44141 1.66016 4.15039 4.05273 4.15039 2.44141 0 4.15039-1.66016 4.15039-4.15039v-14.4043h14.4043c2.44141 0 4.15039-1.61133 4.15039-4.00391 0-2.44141-1.70898-4.15039-4.15039-4.15039h-14.4043v-14.3555c0-2.49023-1.70898-4.19922-4.15039-4.19922-2.39258 0-4.05273 1.70898-4.05273 4.19922v14.3555h-14.3555c-2.49023 0-4.15039 1.70898-4.15039 4.15039Z"/>
  </g>
  <g transform="matrix(0.2 0 0 0.2 304.924 1933)">
   <path d="m74.8535 28.3203c35.1074 0 63.623-28.4668 63.623-63.5742s-28.5156-63.623-63.623-63.623-63.5742 28.5156-63.5742 63.623 28.4668 63.5742 63.5742 63.5742Zm0-9.08203c-30.127 0-54.4922-24.3652-54.4922-54.4922s24.3652-54.4922 54.4922-54.4922 54.4922 24.3652 54.4922 54.4922-24.3652 54.4922-54.4922 54.4922Zm-28.8574-54.4922c0 2.58789 1.85547 4.39453 4.58984 4.39453h19.7266v19.7754c0 2.68555 1.85547 4.58984 4.44336 4.58984 2.68555 0 4.54102-1.85547 4.54102-4.58984v-19.7754h19.7754c2.68555 0 4.58984-1.80664 4.58984-4.39453 0-2.73438-1.85547-4.58984-4.58984-4.58984h-19.7754v-19.7266c0-2.73438-1.85547-4.63867-4.54102-4.63867-2.58789 0-4.44336 1.9043-4.44336 4.63867v19.7266h-19.7266c-2.73438 0-4.58984 1.85547-4.58984 4.58984Z"/>
  </g>
  <text style="stroke:none;fill:black;font-family:sans-serif;font-size:13;font-weight:bold;" transform="matrix(1 0 0 1 263 1953)">Design Variations</text>
  <text style="stroke:none;fill:black;font-family:sans-serif;font-size:13;" transform="matrix(1 0 0 1 263 1971)">Symbols are supported in up to nine weights and three scales.</text>
  <text style="stroke:none;fill:black;font-family:sans-serif;font-size:13;" transform="matrix(1 0 0 1 263 1989)">For optimal layout with text and other symbols, vertically align</text>
  <text style="stroke:none;fill:black;font-family:sans-serif;font-size:13;" transform="matrix(1 0 0 1 263 2007)">symbols with the adjacent text.</text>
  <line style="fill:none;stroke:#00AEEF;stroke-width:0.5;opacity:1.0;" x1="776" x2="776" y1="1919" y2="1933"/>
  <g transform="matrix(0.2 0 0 0.2 776 1933)">
   <path d="m16.5527 0.78125c2.58789 0 3.85742-0.976562 4.78516-3.71094l6.29883-17.2363h28.8086l6.29883 17.2363c0.927734 2.73438 2.19727 3.71094 4.73633 3.71094 2.58789 0 4.24805-1.5625 4.24805-4.00391 0-0.830078-0.146484-1.61133-0.537109-2.63672l-22.9004-60.9863c-1.12305-2.97852-3.125-4.49219-6.25-4.49219-3.02734 0-5.07812 1.46484-6.15234 4.44336l-22.9004 61.084c-0.390625 1.02539-0.537109 1.80664-0.537109 2.63672 0 2.44141 1.5625 3.95508 4.10156 3.95508Zm13.4766-28.3691 11.8652-32.8613h0.244141l11.8652 32.8613Z"/>
  </g>
  <line style="fill:none;stroke:#00AEEF;stroke-width:0.5;opacity:1.0;" x1="792.836" x2="792.836" y1="1919" y2="1933"/>
  <text style="stroke:none;fill:black;font-family:sans-serif;font-size:13;font-weight:bold;" transform="matrix(1 0 0 1 776 1953)">Margins</text>
  <text style="stroke:none;fill:black;font-family:sans-serif;font-size:13;" transform="matrix(1 0 0 1 776 1971)">Leading and trailing margins on the left and right side of each symbol</text>
  <text style="stroke:none;fill:black;font-family:sans-serif;font-size:13;" transform="matrix(1 0 0 1 776 1989)">can be adjusted by modifying the x-location of the margin guidelines.</text>
  <text style="stroke:none;fill:black;font-family:sans-serif;font-size:13;" transform="matrix(1 0 0 1 776 2007)">Modifications are automatically applied proportionally to all</text>
  <text style="stroke:none;fill:black;font-family:sans-serif;font-size:13;" transform="matrix(1 0 0 1 776 2025)">scales and weights.</text>
  <g transform="matrix(0.2 0 0 0.2 1289 1933)">
   <path d="m14.209 9.32617 8.49609 8.54492c4.29688 4.3457 9.22852 4.05273 13.8672-1.07422l53.4668-58.9355-4.83398-4.88281-53.0762 58.3984c-1.75781 2.00195-3.41797 2.49023-5.76172 0.146484l-5.85938-5.81055c-2.34375-2.29492-1.80664-4.00391 0.195312-5.81055l57.373-54.0039-4.88281-4.83398-57.959 54.4434c-4.93164 4.58984-5.32227 9.47266-1.02539 13.8184Zm32.0801-90.9668c-2.09961 2.05078-2.24609 4.93164-1.07422 6.88477 1.17188 1.80664 3.4668 2.97852 6.68945 2.14844 7.32422-1.70898 14.9414-2.00195 22.0703 2.68555l-2.92969 7.27539c-1.70898 4.15039-0.830078 7.08008 1.85547 9.81445l11.4746 11.5723c2.44141 2.44141 4.49219 2.53906 7.32422 2.05078l5.32227-0.976562 3.32031 3.36914-0.195312 2.7832c-0.195312 2.49023 0.439453 4.39453 2.88086 6.78711l3.80859 3.71094c2.39258 2.39258 5.46875 2.53906 7.8125 0.195312l14.5508-14.5996c2.34375-2.34375 2.24609-5.32227-0.146484-7.71484l-3.85742-3.80859c-2.39258-2.39258-4.24805-3.17383-6.64062-2.97852l-2.88086 0.244141-3.22266-3.17383 1.2207-5.61523c0.634766-2.83203-0.146484-5.0293-3.07617-7.95898l-10.9863-10.9375c-16.6992-16.6016-38.8672-16.2109-53.3203-1.75781Zm7.4707 1.85547c12.1582-8.88672 28.6133-7.37305 39.7461 3.75977l12.1582 12.0605c1.17188 1.17188 1.36719 2.09961 1.02539 3.80859l-1.61133 7.42188 7.51953 7.42188 4.93164-0.292969c1.26953-0.0488281 1.66016 0.0488281 2.63672 1.02539l2.88086 2.88086-12.207 12.207-2.88086-2.88086c-0.976562-0.976562-1.12305-1.36719-1.07422-2.68555l0.341797-4.88281-7.4707-7.42188-7.61719 1.26953c-1.61133 0.341797-2.34375 0.195312-3.56445-0.976562l-10.0098-10.0098c-1.26953-1.17188-1.41602-2.00195-0.634766-3.85742l4.39453-10.4492c-7.8125-7.27539-17.9688-10.4004-28.125-7.42188-0.78125 0.195312-1.07422-0.439453-0.439453-0.976562Z"/>
  </g>
  <text style="stroke:none;fill:black;font-family:sans-serif;font-size:13;font-weight:bold;" transform="matrix(1 0 0 1 1289 1953)">Exporting</text>
  <text style="stroke:none;fill:black;font-family:sans-serif;font-size:13;" transform="matrix(1 0 0 1 1289 1971)">Symbols should be outlined when exporting to ensure the</text>
  <text style="stroke:none;fill:black;font-family:sans-serif;font-size:13;" transform="matrix(1 0 0 1 1289 1989)">design is preserved when submitting to Xcode.</text>
  <text id="template-version" style="stroke:none;fill:black;font-family:sans-serif;font-size:13;text-anchor:end;" transform="matrix(1 0 0 1 3036 1933)">Template v.6.0</text>
  <text style="stroke:none;fill:black;font-family:sans-serif;font-size:13;text-anchor:end;" transform="matrix(1 0 0 1 3036 1951)">Requires Xcode 16 or greater</text>
  <text id="descriptive-name" style="stroke:none;fill:black;font-family:sans-serif;font-size:13;text-anchor:end;" transform="matrix(1 0 0 1 3036 1969)">Generated from customPet.heart.fill</text>
  <text style="stroke:none;fill:black;font-family:sans-serif;font-size:13;text-anchor:end;" transform="matrix(1 0 0 1 3036 1987)">Typeset at 100.0 points</text>
  <text style="stroke:none;fill:black;font-family:sans-serif;font-size:13;" transform="matrix(1 0 0 1 263 726)">Small</text>
  <text style="stroke:none;fill:black;font-family:sans-serif;font-size:13;" transform="matrix(1 0 0 1 263 1156)">Medium</text>
  <text style="stroke:none;fill:black;font-family:sans-serif;font-size:13;" transform="matrix(1 0 0 1 263 1586)">Large</text>
 </g>
 <g id="Guides">
  <g id="H-reference" style="fill:#27AAE1;stroke:none;" transform="matrix(1 0 0 1 339 696)">
   <path d="M0.993654 0L3.63775 0L29.3281-67.1323L30.0303-67.1323L30.0303-70.459L28.1226-70.459ZM11.6885-24.4799L46.9815-24.4799L46.2315-26.7285L12.4385-26.7285ZM55.1196 0L57.7637 0L30.6382-70.459L29.4326-70.459L29.4326-67.1323Z"/>
  </g>
  <line id="Baseline-S" style="fill:none;stroke:#27AAE1;opacity:1;stroke-width:0.5;" x1="263" x2="3036" y1="696" y2="696"/>
  <line id="Capline-S" style="fill:none;stroke:#27AAE1;opacity:1;stroke-width:0.5;" x1="263" x2="3036" y1="625.541" y2="625.541"/>
  <g id="H-reference" style="fill:#27AAE1;stroke:none;" transform="matrix(1 0 0 1 339 1126)">
   <path d="M0.993654 0L3.63775 0L29.3281-67.1323L30.0303-67.1323L30.0303-70.459L28.1226-70.459ZM11.6885-24.4799L46.9815-24.4799L46.2315-26.7285L12.4385-26.7285ZM55.1196 0L57.7637 0L30.6382-70.459L29.4326-70.459L29.4326-67.1323Z"/>
  </g>
  <line id="Baseline-M" style="fill:none;stroke:#27AAE1;opacity:1;stroke-width:0.5;" x1="263" x2="3036" y1="1126" y2="1126"/>
  <line id="Capline-M" style="fill:none;stroke:#27AAE1;opacity:1;stroke-width:0.5;" x1="263" x2="3036" y1="1055.54" y2="1055.54"/>
  <g id="H-reference" style="fill:#27AAE1;stroke:none;" transform="matrix(1 0 0 1 339 1556)">
   <path d="M0.993654 0L3.63775 0L29.3281-67.1323L30.0303-67.1323L30.0303-70.459L28.1226-70.459ZM11.6885-24.4799L46.9815-24.4799L46.2315-26.7285L12.4385-26.7285ZM55.1196 0L57.7637 0L30.6382-70.459L29.4326-70.459L29.4326-67.1323Z"/>
  </g>
  <line id="Baseline-L" style="fill:none;stroke:#27AAE1;opacity:1;stroke-width:0.5;" x1="263" x2="3036" y1="1556" y2="1556"/>
  <line id="Capline-L" style="fill:none;stroke:#27AAE1;opacity:1;stroke-width:0.5;" x1="263" x2="3036" y1="1485.54" y2="1485.54"/>
  <line id="right-margin-Black-S" style="fill:none;stroke:#00AEEF;stroke-width:0.5;opacity:1.0;" x1="2985.06" x2="2985.06" y1="600.785" y2="720.121"/>
  <line id="left-margin-Black-S" style="fill:none;stroke:#00AEEF;stroke-width:0.5;opacity:1.0;" x1="2881.74" x2="2881.74" y1="600.785" y2="720.121"/>
  <line id="right-margin-Regular-S" style="fill:none;stroke:#00AEEF;stroke-width:0.5;opacity:1.0;" x1="1498.04" x2="1498.04" y1="600.785" y2="720.121"/>
  <line id="left-margin-Regular-S" style="fill:none;stroke:#00AEEF;stroke-width:0.5;opacity:1.0;" x1="1401.65" x2="1401.65" y1="600.785" y2="720.121"/>
  <line id="right-margin-Ultralight-S" style="fill:none;stroke:#00AEEF;stroke-width:0.5;opacity:1.0;" x1="605.498" x2="605.498" y1="600.785" y2="720.121"/>
  <line id="left-margin-Ultralight-S" style="fill:none;stroke:#00AEEF;stroke-width:0.5;opacity:1.0;" x1="513.924" x2="513.924" y1="600.785" y2="720.121"/>
 </g>
 <g id="Symbols">
  <g id="Black-S" transform="matrix(1 0 0 1 2881.74 696)">
   <path class="SFSymbolsPreviewWireframe" d="M51.7466-5.28201C77.5421-31.0751 77.3485-30.6637 80.6011-34.3247C82.337-36.2786 83.572-39.6562 83.7695-43.457C84.0633-49.1069 82.0181-55.4369 76.0899-59.559C66.1577-66.4656 57.3839-60.5118 53.4673-57.3365C52.5399-56.5848 51.213-56.5848 50.2858-57.3365C46.3638-60.516 37.3469-66.4931 27.4013-59.5772C21.5057-55.4774 19.1504-49.3995 19.637-43.7941C19.9523-40.1597 20.4938-37.5936 23.076-34.4452C26.1725-30.6694 26.1502-30.8928 51.7466-5.28201Z"/>
   <path class="monochrome-0 multicolor-0:tintColor hierarchical-0:primary SFSymbolsPreviewWireframe" d="M51.8994-66.5184C58.1954-71.1113 69.8426-76.9443 82.8277-67.9149C91.4553-61.9154 94.4853-52.7284 94.0581-44.5062C93.7548-38.6702 91.66-33.5547 88.9945-30.5542C85.2357-26.3229 85.4878-26.8181 55.3393 3.3304C54.7241 3.94553 54.1171 4.35512 53.5419 4.61078L52.732 4.88434L51.8326 4.99859L50.9206 4.91834L50.0817 4.66507C49.483 4.41866 48.85 4.00967 48.2098 3.36918C18.1111-26.7492 18.1752-26.478 14.5778-30.8648C10.7474-35.5349 9.8349-39.3006 9.36714-44.6918C8.65207-52.9295 12.0156-61.9103 20.6805-67.9354C33.651-76.9548 45.5578-71.1101 51.8994-66.5184Z"/>
   <path class="monochrome-1 multicolor-1:tertiaryLabelColor hierarchical-1:primary SFSymbolsPreviewWireframe" d="M69.0474-55.4068C67.6097-55.6896 66.6722-57.0868 66.9553-58.5244C67.2383-59.9621 68.6352-60.8997 70.0729-60.6169C70.0729-60.6169 77.6705-59.0956 80.7921-52.3718C82.0911-49.5738 82.6699-45.8478 81.4406-40.9012C81.0872-39.4791 79.6458-38.6116 78.2237-38.9651C76.8016-39.3182 75.9341-40.7598 76.2872-42.1819C77.1392-45.6092 76.8757-48.1972 75.9756-50.136C73.9664-54.4643 69.0474-55.4068 69.0474-55.4068Z"/>
  </g>
  <g id="Regular-S" transform="matrix(1 0 0 1 1401.65 696)">
   <path class="SFSymbolsPreviewWireframe" d="M48.2296-3.8131C75.3434-30.9241 75.1399-30.4916 78.5583-34.3396C80.3828-36.3935 81.6811-39.9438 81.8887-43.9388C82.1975-49.8771 80.0478-56.5305 73.8166-60.8635C63.377-68.1228 54.1551-61.8647 50.0383-58.5271C49.0637-57.7372 47.6688-57.7372 46.6942-58.5271C42.572-61.8692 33.0942-68.1514 22.6406-60.8826C16.4437-56.5734 13.9682-50.1847 14.4795-44.2932C14.811-40.473 15.3802-37.7756 18.0942-34.4664C21.3489-30.4978 21.3256-30.7326 48.2296-3.8131Z"/>
   <path class="monochrome-0 multicolor-0:tintColor hierarchical-0:primary SFSymbolsPreviewWireframe" d="M48.3627-63.9371C54.1614-68.1672 64.8885-73.5393 76.8481-65.2231C84.7943-59.6974 87.5851-51.2363 87.1916-43.6632C86.9124-38.2881 84.9829-33.5765 82.528-30.8132C79.0661-26.916 79.2982-27.3721 51.5308 0.395262C50.964 0.961766 50.4053 1.33914 49.8754 1.57451L49.1294 1.82659L48.3009 1.93189L47.4609 1.85791L46.6885 1.62463C46.1369 1.39761 45.5537 1.02113 44.9643 0.43106C17.2428-27.3088 17.3019-27.0589 13.9885-31.099C10.4609-35.4004 9.62025-38.8686 9.18918-43.8341C8.5308-51.4212 11.6288-59.6926 19.6091-65.2419C31.5552-73.5492 42.5216-68.166 48.3627-63.9371Z"/>
   <path class="monochrome-1 multicolor-1:tertiaryLabelColor hierarchical-1:primary SFSymbolsPreviewWireframe" d="M65.5274-55.4068C64.0897-55.6896 63.1522-57.0868 63.4352-58.5244C63.7183-59.9621 65.1152-60.8997 66.5529-60.6169C66.5529-60.6169 74.1505-59.0956 77.2721-52.3718C78.5711-49.5738 79.1499-45.8478 77.9206-40.9012C77.5672-39.4791 76.1258-38.6116 74.7037-38.9651C73.2816-39.3182 72.4141-40.7598 72.7672-42.1819C73.6192-45.6092 73.3557-48.1972 72.4556-50.136C70.4464-54.4643 65.5274-55.4068 65.5274-55.4068Z"/>
  </g>
  <g id="Ultralight-S" transform="matrix(1 0 0 1 513.924 696)">
   <path class="SFSymbolsPreviewWireframe" d="M45.8058-4.68895C72.1335-31.0142 71.936-30.5942 75.2554-34.3306C77.0271-36.3252 78.2878-39.7722 78.4895-43.6515C78.789-49.4177 76.7016-55.8784 70.6512-60.0855C60.5144-67.1345 51.5595-61.058 47.562-57.8171C46.6155-57.0499 45.2614-57.0499 44.3149-57.8171C40.312-61.0622 31.109-67.1625 20.9584-60.104C14.9411-55.9198 12.5372-49.7163 13.0339-43.9958C13.3558-40.2862 13.9083-37.667 16.5439-34.4538C19.7043-30.6002 19.6816-30.8281 45.8058-4.68895Z"/>
   <path class="monochrome-0 multicolor-0:tintColor hierarchical-0:primary SFSymbolsPreviewWireframe" d="M45.9252-61.5634C51.2665-65.46 61.148-70.4085 72.1645-62.748C79.4843-57.6581 82.0552-49.864 81.6925-42.8881C81.4353-37.937 79.658-33.5968 77.3967-31.0512C74.2077-27.4613 74.4216-27.8816 48.8433-2.30331C48.3215-1.78156 47.8067-1.43402 47.3186-1.21714L46.6316-0.984752L45.8682-0.888098L45.0947-0.956114L44.3829-1.1712C43.8748-1.38002 43.3379-1.72696 42.7946-2.2705C17.259-27.8231 17.3133-27.5931 14.2612-31.3146C11.0116-35.2766 10.2375-38.4716 9.84044-43.0454C9.23397-50.0343 12.0874-57.6536 19.4388-62.7656C30.4428-70.4174 40.5447-65.4588 45.9252-61.5634Z"/>
   <path class="monochrome-1 multicolor-1:tertiaryLabelColor hierarchical-1:primary SFSymbolsPreviewWireframe" d="M64.4958-53.9759C63.4234-54.1868 62.7241-55.229 62.9353-56.3014C63.1464-57.3737 64.1884-58.0731 65.2607-57.8622C65.2607-57.8622 70.9279-56.7274 73.2563-51.7121C74.2252-49.625 74.6569-46.8458 73.74-43.1561C73.4764-42.0953 72.4013-41.4482 71.3405-41.7119C70.2798-41.9753 69.6327-43.0506 69.8961-44.1114C70.5315-46.6678 70.335-48.5982 69.6636-50.0443C68.165-53.2729 64.4958-53.9759 64.4958-53.9759Z"/>
  </g>
 </g>
</svg>
